<?xml version="1.0" encoding="utf-8"?>
<!-- Generator: Adobe Illustrator 28.0.0, SVG Export Plug-In . SVG Version: 6.00 Build 0)  -->
<svg version="1.1" id="Capa_1" xmlns="http://www.w3.org/2000/svg" xmlns:xlink="http://www.w3.org/1999/xlink" x="0px" y="0px"
	 viewBox="0 0 344.07 222.23" style="enable-background:new 0 0 344.07 222.23;" xml:space="preserve">
<style type="text/css">
	.st0{fill:#8A60A5;}
	.st1{fill:#FFFFFF;}
	.st2{font-family:'AbrilFatface-Regular';}
	.st3{font-size:83.0637px;}
</style>
<path class="st0" d="M191.04,123.27c0.59-1.17,1.67-1.33,2.77-1.19c2.99,0.4,5.99,0.79,8.95,1.36c4,0.76,4.72,0.53,6.87-2.89
	c0.31-0.5,0.63-0.99,0.9-1.52c4.19-8.28,8.37-16.57,12.55-24.86c1-1.99,1.97-4,2.94-5.95c-2.56-2.12-5.18-3.4-8.51-3.33
	c-3.01,0.07-5.98-0.69-8.16-3.03c-2.84-3.05-4.2-6.77-4.45-10.89c-0.05-0.87,0.29-1.77,0.44-2.65c-0.13,0.18-0.25,0.35-0.38,0.53
	c-0.22-0.49-0.4-1.01-0.68-1.48c-2.23-3.74-4.47-7.47-6.75-11.18c-0.47-0.76-0.36-1.29,0.19-1.95c1.98-2.36,3.9-4.77,5.86-7.15
	c0.73-0.89,1.5-1.76,2.4-2.81c1.02,1.99,1.94,3.77,2.67,5.19c2.83-1.41,5.56-2.77,8.33-4.15c0.23,0.39,0.38,0.59,0.47,0.8
	c4.48,9.78,8.96,19.55,13.45,29.32c0.37,0.8,0.1,1.11-0.62,1.43c-1.79,0.79-3.54,1.66-5.54,2.61c7.15,3.05,14.02,5.99,20.9,8.89
	c0.29,0.12,0.77,0.07,1.05-0.09c0.87-0.51,1.69-1.11,2.53-1.68c-2.38,0.72-4.64,0.55-6.9-0.36c-3.76-1.51-7.55-2.96-11.32-4.44
	c-0.34-0.13-0.64-0.37-0.96-0.55c1.22-2.57,2.42-4.13,6.02-3.49c1.53,0.27,3.06,0.68,4.49,1.28c3.15,1.32,6.23,2.83,9.37,4.18
	c1.8,0.78,2.35,0.53,2.86-1.4c0.51-1.92,0.72-3.92,1.15-5.87c0.68-3.08,1.29-6.18,2.18-9.21c0.59-1.99,0.51-3.79-0.34-5.72
	c-0.85,0.55-1.6,1.08-2.4,1.53c-5.75,3.25-13.34-0.37-14.32-6.91c-0.31-2.06-1.11-3.73-2.65-5.05c-1.44-1.23-2.01-2.83-2.18-4.64
	c-0.09-0.93-0.25-1.85-0.38-2.83c-2.15,1.22-2.06,3.39-2.59,5.6c-1.39-2.34-2.26-4.61-1.49-6.89c1.36-4.03,2.82-8.07,4.77-11.84
	c2.57-4.96,6.92-7.91,12.49-8.78c4.9-0.77,9.53,0.16,13.83,2.66c0.35,0.21,1.02,0.52,1.13,0.4c0.99-1.04,2.61-1.05,3.43-2.51
	c3.34-5.95,9.52-5.46,13.81-1.68c3.19,2.81,4.11,6.69,4.22,10.74c0.08,2.92-0.28,5.86-0.26,8.78c0.03,3.76,1.86,6.48,5.16,8.25
	c0.26,0.14,0.5,0.35,0.8,0.56c-3.89,2.17-10.13,2.09-12.59-2.66c-0.9-1.73-1.51-3.74-1.7-5.68c-0.34-3.35-0.24-6.74-0.36-10.11
	c-0.11-3.06-3.12-5.09-5.95-4.02c-0.24,0.09-0.47,0.33-0.59,0.56c-0.36,0.71-0.67,1.44-1.06,2.3c0.28,0.35,0.71,0.88,1.11,1.43
	c3.42,4.7,5.13,9.85,4,15.71c-0.58,3.01-2.1,5.55-4.08,7.85c-0.31,0.36-0.59,1.15-0.41,1.46c0.96,1.65,2.02,3.23,3.98,3.93
	c0.62,0.22,1.21,0.65,1.72,1.1c4.58,3.98,8.05,8.81,10.53,14.31c3.36,7.43,4.41,15.44,5.31,23.44c0.62,5.53,0.75,11.1,0.04,16.65
	c-0.07,0.53-0.15,1.06-0.24,1.58c-0.45,1.6-1.05,3.17-1.83,4.63c-1.13,2.12-2.76,4.31-5.25,4.51c-0.28-0.15-0.64-0.19-1.05-0.03
	c-5.95,2.25-12.49,3.82-18.85,2.55c-5.98-1.19-10.79-4.78-14.62-9.36c0.07-0.02,0.13-0.03,0.2-0.05
	c-3.51-4.71-7.02-9.42-10.61-14.24c-0.57,0.67-1.14,1.32-1.68,1.99c-5.57,6.99-11.19,13.94-16.66,21.01
	c-1.14,1.47-1.71,3.38-2.58,5.07c-0.83,1.62-1.71,3.22-2.61,4.91c-0.07,0.03-0.13,0.06-0.18,0.1c-0.17-0.08-0.37-0.13-0.6-0.13
	c-2.48-0.02-4.67-1.78-6.92-2.65c-1.81-0.7-3.62-1.42-5.45-2.08c-0.94-0.49-1.78-0.93-2.55-1.47c-2.03-1.43-4.04-2.89-5.9-4.53
	C190.8,125.74,190.41,124.51,191.04,123.27z"/>
<text transform="matrix(1 0 0 1 15.3866 126.3322)" class="st1 st2 st3">E n g</text>
<text transform="matrix(1 0 0 1 68.4433 188.6291)" class="st1 st2 st3">B o o k</text>
</svg>
